<svg id="Layer_1" data-name="Layer 1" xmlns="http://www.w3.org/2000/svg" viewBox="0 0 380.72 87.93"><defs><style>.cls-1{fill:#fff;}</style></defs><title>quietly-insights</title><path class="cls-1" d="M424.42,416.27l6.48-30.46h4.9l-6.48,30.46Z" transform="translate(-192.42 -355.62)"/><path class="cls-1" d="M450.25,416.27l3-14a15.74,15.74,0,0,0,.38-2.73,2.39,2.39,0,0,0-2.69-2.73,4.67,4.67,0,0,0-3,1.19,10.73,10.73,0,0,0-2.62,3.43,19.37,19.37,0,0,0-1.75,5.07l-2,9.77h-4.92l4.92-23h3.83l-.44,4.27h.19a12.5,12.5,0,0,1,3.56-3.57,7.53,7.53,0,0,1,4-1.11,5.73,5.73,0,0,1,4.32,1.58,6.21,6.21,0,0,1,1.53,4.5,19.67,19.67,0,0,1-.48,3.77l-2.85,13.6Z" transform="translate(-192.42 -355.62)"/><path class="cls-1" d="M477.09,409.18a6.67,6.67,0,0,1-2.46,5.55,10.74,10.74,0,0,1-6.83,1.95,14.69,14.69,0,0,1-6.71-1.4v-4.23a12.68,12.68,0,0,0,6.5,1.88,5.8,5.8,0,0,0,3.27-.83,2.6,2.6,0,0,0,1.25-2.27,2.56,2.56,0,0,0-.72-1.82,14.09,14.09,0,0,0-2.95-2,11,11,0,0,1-3.68-2.84,5.59,5.59,0,0,1-1.07-3.43,6.2,6.2,0,0,1,2.23-5.06,9.19,9.19,0,0,1,6-1.83,14.5,14.5,0,0,1,7.21,1.75l-1.58,3.67a11.66,11.66,0,0,0-5.54-1.58,4.11,4.11,0,0,0-2.47.69,2.23,2.23,0,0,0-.95,1.92,2.36,2.36,0,0,0,.69,1.67,12.14,12.14,0,0,0,2.81,1.88,16.33,16.33,0,0,1,3.1,2.1,6.31,6.31,0,0,1,1.4,1.91A5.61,5.61,0,0,1,477.09,409.18Z" transform="translate(-192.42 -355.62)"/><path class="cls-1" d="M485.9,416.27H481l4.92-23h4.9Zm1-28.71a3.23,3.23,0,0,1,.81-2.29,3,3,0,0,1,2.29-.87,2.77,2.77,0,0,1,1.79.55,2,2,0,0,1,.69,1.68,3.2,3.2,0,0,1-.83,2.33,2.92,2.92,0,0,1-2.19.85,3,3,0,0,1-1.83-.54A2,2,0,0,1,486.88,387.56Z" transform="translate(-192.42 -355.62)"/><path class="cls-1" d="M515.54,393.23l-.65,2.85-4,.69a6.51,6.51,0,0,1,.58,2.85A8.41,8.41,0,0,1,509,406a9.23,9.23,0,0,1-6.65,2.36,9.83,9.83,0,0,1-1.92-.17q-2.31.83-2.31,2.17a1.08,1.08,0,0,0,.66,1.08,7.25,7.25,0,0,0,1.91.46l2.65.33a10,10,0,0,1,5.25,1.82,4.87,4.87,0,0,1,1.58,3.91,7.28,7.28,0,0,1-3.15,6.31q-3.15,2.23-8.94,2.23a11.67,11.67,0,0,1-6.55-1.56,4.91,4.91,0,0,1-2.32-4.29,5.27,5.27,0,0,1,1.45-3.71,11.16,11.16,0,0,1,4.66-2.65,2.93,2.93,0,0,1-1.58-2.65,3.55,3.55,0,0,1,1-2.49,9.86,9.86,0,0,1,3.05-2,5.69,5.69,0,0,1-2.81-5.25,8.8,8.8,0,0,1,2.55-6.58,9.22,9.22,0,0,1,6.74-2.5,13.72,13.72,0,0,1,3.33.42Zm-17.06,22.67a7,7,0,0,0-3.58,1.48,3.5,3.5,0,0,0-1.25,2.73,2.5,2.5,0,0,0,1.16,2.16,6.24,6.24,0,0,0,3.53.8,10.53,10.53,0,0,0,5.31-1.12,3.55,3.55,0,0,0,1.92-3.23,1.88,1.88,0,0,0-.94-1.67,8.07,8.07,0,0,0-3.29-.85Zm5.63-19.81a3.73,3.73,0,0,0-2.37.8,5.2,5.2,0,0,0-1.58,2.19,8,8,0,0,0-.56,3,3.24,3.24,0,0,0,.74,2.28,2.73,2.73,0,0,0,2.11.8,3.58,3.58,0,0,0,2.34-.81,5.3,5.3,0,0,0,1.54-2.23,8.49,8.49,0,0,0,.55-3.1Q506.88,396.08,504.11,396.08Z" transform="translate(-192.42 -355.62)"/><path class="cls-1" d="M528.58,416.27l3-14a15.77,15.77,0,0,0,.38-2.65q0-2.81-2.69-2.81-2.33,0-4.36,2.6a17.14,17.14,0,0,0-3,7.12l-2,9.73h-4.92l6.87-32.42h4.9l-1.19,5.46q-.56,2.63-1.52,6.1l-.4,1.56h.17a12.27,12.27,0,0,1,3.51-3.19,7.51,7.51,0,0,1,3.7-1,5.66,5.66,0,0,1,4.34,1.61,6.51,6.51,0,0,1,1.51,4.61,16.08,16.08,0,0,1-.48,3.63l-2.9,13.6Z" transform="translate(-192.42 -355.62)"/><path class="cls-1" d="M548.6,412.72a9.08,9.08,0,0,0,3.15-.65v3.71a9,9,0,0,1-2,.63,11.8,11.8,0,0,1-2.5.27q-5.71,0-5.71-5.15a13.13,13.13,0,0,1,.33-2.73l2.52-11.87H541l.44-2.29,4-1.71,2.69-4.83h3l-1.08,5.12h5.81l-.81,3.71h-5.77l-2.54,11.92a8.61,8.61,0,0,0-.27,1.92,2,2,0,0,0,.52,1.43A2.13,2.13,0,0,0,548.6,412.72Z" transform="translate(-192.42 -355.62)"/><path class="cls-1" d="M571.08,409.18a6.67,6.67,0,0,1-2.46,5.55,10.74,10.74,0,0,1-6.83,1.95,14.69,14.69,0,0,1-6.71-1.4v-4.23a12.68,12.68,0,0,0,6.5,1.88,5.8,5.8,0,0,0,3.27-.83,2.6,2.6,0,0,0,1.25-2.27,2.56,2.56,0,0,0-.72-1.82,14.09,14.09,0,0,0-2.95-2,11,11,0,0,1-3.68-2.84,5.59,5.59,0,0,1-1.07-3.43,6.2,6.2,0,0,1,2.23-5.06,9.19,9.19,0,0,1,6-1.83,14.5,14.5,0,0,1,7.21,1.75l-1.58,3.67a11.66,11.66,0,0,0-5.54-1.58,4.11,4.11,0,0,0-2.47.69,2.23,2.23,0,0,0-.95,1.92,2.36,2.36,0,0,0,.69,1.67,12.14,12.14,0,0,0,2.81,1.88,16.33,16.33,0,0,1,3.1,2.1,6.31,6.31,0,0,1,1.4,1.91A5.61,5.61,0,0,1,571.08,409.18Z" transform="translate(-192.42 -355.62)"/><path class="cls-1" d="M315.06,385.47a9.3,9.3,0,0,0-13,0c-2.46,2.46-2.65,5.11-2.65,12.47s.19,10,2.65,12.47a9.1,9.1,0,0,0,6.5,2.65,9.31,9.31,0,0,0,5.83-2l-4.82-4.82,1.73-1.73,4.77,4.77c1.49-2.22,1.64-5.1,1.64-11.32,0-7.37-.19-10-2.65-12.47m5.11,31.35-4-4a12.25,12.25,0,0,1-16.13-.92c-3.13-3.13-3.18-6.16-3.18-13.92s0-10.79,3.18-13.92a12.21,12.21,0,0,1,17.15,0c3.13,3.13,3.18,6.17,3.18,13.92,0,7.08,0,10.26-2.46,13.1l4,4Z" transform="translate(-192.42 -355.62)"/><path class="cls-1" d="M340.31,415.27v-2.93a8.22,8.22,0,0,1-6.8,3,8.06,8.06,0,0,1-8.67-8.67V391.88h2.64v14.39c0,4.48,2.2,6.93,6.34,6.93s6.48-2.55,6.48-6.93V391.88H343v23.39Z" transform="translate(-192.42 -355.62)"/><path class="cls-1" d="M348.61,391.88h2.26v23.39h-2.26Zm-.38-10.94h3v3h-3Z" transform="translate(-192.42 -355.62)"/><path class="cls-1" d="M370.74,397.67a6.59,6.59,0,0,0-12,0,10.66,10.66,0,0,0-.82,4.39h13.68a10.66,10.66,0,0,0-.82-4.4m-12.86,6.28c0,6,2.65,9.18,7.56,9.18a8.07,8.07,0,0,0,6.4-2.78l1.83,1.45a10.53,10.53,0,0,1-8.38,3.57c-6.41,0-9.87-4.14-9.87-11.9,0-7.46,3.4-11.89,9.23-11.89s9.23,4.24,9.23,11.32v1Z" transform="translate(-192.42 -355.62)"/><path class="cls-1" d="M384.51,415.27c-3.66,0-5.73-2.73-5.73-6.25V393.76h-3v-1.89h3v-7.55h2.64v7.55h5.28v1.89h-5.28v15.3c0,2.41,1.06,3.94,3.52,3.94h1.77v2.26Z" transform="translate(-192.42 -355.62)"/><path class="cls-1" d="M395.88,415.27c-3.76,0-5.78-2.59-5.78-6.2V380.94h2.64V409c0,2.6.82,4,3.57,4H398v2.26Z" transform="translate(-192.42 -355.62)"/><path class="cls-1" d="M404.21,421.4a5.68,5.68,0,0,1-1.59,2.63,6.26,6.26,0,0,1-4.38,1.42h-1v-1.89H398c2.65,0,3.37-.94,4.24-3.25l1.88-5.19-8.47-23.25h2.7l7,20.32,7-20.32H415Z" transform="translate(-192.42 -355.62)"/><path class="cls-1" d="M280.35,399.58a6.71,6.71,0,0,0-.42-2.47l-11-26.57a6.73,6.73,0,0,0-1.45-2h0a6.73,6.73,0,0,0-2-1.45l-26.57-11a7.45,7.45,0,0,0-4.94,0l-26.57,11a6.7,6.7,0,0,0-2,1.45h0a6.7,6.7,0,0,0-1.45,2l-11,26.57a7.43,7.43,0,0,0,0,4.94l11,26.57a6.67,6.67,0,0,0,1.45,2l.38-.38-.38.38a6.7,6.7,0,0,0,2,1.45l26.57,11a6.73,6.73,0,0,0,2.47.42h0a6.74,6.74,0,0,0,2.47-.42l26.57-11a7.44,7.44,0,0,0,3.49-3.49l11-26.57a6.7,6.7,0,0,0,.42-2.47Zm-2.9,0a3.92,3.92,0,0,1-.2,1.36l-11,26.57a4.67,4.67,0,0,1-1.93,1.93l-26.57,11a3.93,3.93,0,0,1-1.36.2h0a3.94,3.94,0,0,1-1.36-.2l-26.57-11a3.89,3.89,0,0,1-1.1-.82h0a3.91,3.91,0,0,1-.82-1.11l-11-26.57a4.73,4.73,0,0,1,0-2.72l11-26.57a3.92,3.92,0,0,1,.82-1.11h0a3.92,3.92,0,0,1,1.1-.82l26.57-11a4.69,4.69,0,0,1,2.72,0l26.57,11a3.93,3.93,0,0,1,1.11.82h0a3.86,3.86,0,0,1,.82,1.11l11,26.57a3.92,3.92,0,0,1,.2,1.36Z" transform="translate(-192.42 -355.62)"/><path class="cls-1" d="M241.13,380.48h-9.48A11.72,11.72,0,0,0,220,392.17v11.34a11.72,11.72,0,0,0,11.69,11.69h6.07L231.52,409a5.54,5.54,0,0,1-5.38-5.5V392.17a5.53,5.53,0,0,1,5.5-5.5h9.48a5.53,5.53,0,0,1,5.5,5.5v11.34a5.53,5.53,0,0,1-5.15,5.49v9.93l4.36,4.36V414.2a11.72,11.72,0,0,0,7-10.69V392.17a11.72,11.72,0,0,0-11.69-11.69" transform="translate(-192.42 -355.62)"/></svg>