<?xml version="1.0" encoding="UTF-8"?>
<svg width="294px" height="65px" viewBox="0 0 294 65" version="1.1" xmlns="http://www.w3.org/2000/svg" xmlns:xlink="http://www.w3.org/1999/xlink">
    <!-- Generator: Sketch 44.1 (41455) - http://www.bohemiancoding.com/sketch -->
    <title>Group 2</title>
    <desc>Created with Sketch.</desc>
    <defs>
        <polygon id="path-1" points="0 63.9621366 166.523603 63.9621366 166.523603 0.362204192 0 0.362204192"></polygon>
    </defs>
    <g id="v3-approved" stroke="none" stroke-width="1" fill="none" fill-rule="evenodd">
        <g id="MVP---Login/Sign-up" transform="translate(-933.000000, -303.000000)">
            <g id="Group-5" transform="translate(0.000000, -46.000000)">
                <g id="Group-2" transform="translate(933.000000, 349.000000)">
                    <g id="Analytics" transform="translate(172.000000, 11.000000)" font-weight="500" font-size="30" font-family="OpenSans-SemiboldItalic, Open Sans" fill="#FFFFFF" font-style="italic">
                        <text>
                            <tspan x="0.254882812" y="32">Analytics</tspan>
                        </text>
                    </g>
                    <g id="Page-1">
                        <g id="Group-17" transform="translate(0.000000, 0.381913)">
                            <path d="M92.6245371,44.6309939 L89.6923451,41.705098 C88.1550504,42.9240974 86.1980192,43.5860311 84.2081844,43.5860311 C81.8694388,43.5860311 79.6350683,42.6808925 77.9941442,41.0424206 C75.7239879,38.7777147 75.6882022,36.5836646 75.6882022,30.9750778 C75.6882022,25.3672346 75.7239879,23.1716971 77.9941442,20.907735 C79.6350683,19.2700068 81.8694388,18.3648682 84.2081844,18.3648682 C86.548421,18.3648682 88.7827915,19.2700068 90.4259522,20.907735 C92.6946174,23.1716971 92.7296576,25.3672346 92.7296576,30.9750778 C92.7296576,36.0957674 92.6946174,38.3961731 90.9485728,40.4511427 L93.8822558,43.3770385 L92.6245371,44.6309939 Z M88.9229522,21.9526978 C87.6667246,20.6979986 85.9907603,20.0368087 84.2081844,20.0368087 C82.4285906,20.0368087 80.7518808,20.6979986 79.4949076,21.9526978 C77.7138228,23.7295064 77.5744076,25.6453955 77.5744076,30.9750778 C77.5744076,36.30476 77.7138228,38.2213928 79.4949076,39.9982015 C80.7518808,41.2514131 82.4285906,41.9140906 84.2081844,41.9140906 C85.7797737,41.9140906 87.2469879,41.3912373 88.4346263,40.4511427 L84.9425371,36.9674375 L86.1980192,35.7134821 L89.6565594,39.1614875 C90.7383317,37.5594591 90.8449433,35.4695335 90.8449433,30.9750778 C90.8449433,25.6453955 90.7047826,23.7295064 88.9229522,21.9526978 L88.9229522,21.9526978 Z" id="Fill-5" fill="#FFFFFF"></path>
                            <path d="M107.229731,43.5080865 L107.229731,41.3913861 C106.13603,42.8550778 104.326615,43.5861799 102.302485,43.5861799 C100.41628,43.5861799 98.8782397,43.0291143 97.7972129,41.9834077 C96.6781638,40.9034888 96.0146371,39.3014604 96.0146371,37.3156592 L96.0146371,26.5901014 L97.9299183,26.5901014 L97.9299183,37.0025423 C97.9299183,40.2415551 99.5238737,42.0183638 102.527637,42.0183638 C105.529164,42.0183638 107.229731,40.171643 107.229731,37.0025423 L107.229731,26.5901014 L109.144267,26.5901014 L109.144267,43.5080865 L107.229731,43.5080865 Z" id="Fill-7" fill="#FFFFFF"></path>
                            <mask id="mask-2" fill="white">
                                <use xlink:href="#path-1"></use>
                            </mask>
                            <g id="Clip-10"></g>
                            <path d="M112.972518,20.8598377 L115.162156,20.8598377 L115.162156,18.6769439 L112.972518,18.6769439 L112.972518,20.8598377 Z M113.246875,43.508384 L114.887799,43.508384 L114.887799,26.5903989 L113.246875,26.5903989 L113.246875,43.508384 Z" id="Fill-9" fill="#FFFFFF" mask="url(#mask-2)"></path>
                            <path d="M119.967805,35.3221231 C119.967805,39.6879108 121.889796,41.9622853 125.451966,41.9622853 C127.441055,41.9622853 128.664479,41.3806761 130.095908,39.9526842 L131.422216,41.0028533 C129.712702,42.7097498 128.141113,43.5836511 125.346845,43.5836511 C120.702158,43.5836511 118.188211,40.5885869 118.188211,34.9792563 C118.188211,29.5804057 120.65668,26.3763489 124.879394,26.3763489 C129.071542,26.3763489 131.574305,29.4428127 131.574305,34.5635024 L131.574305,35.3221231 L119.967805,35.3221231 Z M129.292966,30.7770926 C128.560104,29.03524 126.848354,27.9501149 124.9286,27.9501149 C123.006608,27.9501149 121.29635,29.0374713 120.562742,30.7793239 C120.143751,31.8242867 120.038631,32.3203651 119.967805,33.9573496 L129.886412,33.9573496 C129.816332,32.3203651 129.712702,31.8220554 129.292966,30.7770926 L129.292966,30.7770926 Z" id="Fill-11" fill="#FFFFFF" mask="url(#mask-2)"></path>
                            <path d="M139.281131,43.5080865 C136.62777,43.5080865 135.129988,41.5304665 135.129988,38.9875997 L135.129988,27.9541312 L132.941096,27.9541312 L132.941096,26.5901014 L135.129988,26.5901014 L135.129988,21.1324949 L137.043779,21.1324949 L137.043779,26.5901014 L140.873596,26.5901014 L140.873596,27.9541312 L137.043779,27.9541312 L137.043779,39.0225558 C137.043779,40.7644084 137.814662,41.8711021 139.594256,41.8711021 L140.873596,41.8711021 L140.873596,43.5080865 L139.281131,43.5080865 Z" id="Fill-12" fill="#FFFFFF" mask="url(#mask-2)"></path>
                            <path d="M147.522954,43.5080865 C144.798021,43.5080865 143.33528,41.6345909 143.33528,39.0225558 L143.33528,18.6766464 L145.24907,18.6766464 L145.24907,38.9875997 C145.24907,40.8685328 145.845499,41.8711021 147.83757,41.8711021 L149.079633,41.8711021 L149.079633,43.5080865 L147.522954,43.5080865 Z" id="Fill-13" fill="#FFFFFF" mask="url(#mask-2)"></path>
                            <path d="M153.563284,47.9425963 C153.250159,48.8484787 152.901249,49.4263692 152.412177,49.845098 C151.572704,50.6461122 150.351517,50.8751859 149.234704,50.8751859 L148.531664,50.8751859 L148.531664,49.5111562 L149.059503,49.5111562 C150.979258,49.5111562 151.504115,48.8306288 152.131856,47.1579446 L153.493204,43.4057471 L147.348499,26.5903989 L149.304784,26.5903989 L154.366972,41.2912779 L159.432142,26.5903989 L161.385445,26.5903989 L153.563284,47.9425963 Z" id="Fill-14" fill="#FFFFFF" mask="url(#mask-2)"></path>
                            <path d="M61.6522996,32.1619473 C61.6522996,32.5375389 61.6045853,32.9123867 61.5069201,33.1466667 L53.5252147,52.3672887 C53.4297862,52.6015686 53.1964335,52.9012982 52.9317683,53.1668154 C52.6663576,53.4323327 52.3644156,53.6628938 52.1295719,53.7603245 L32.8634379,61.7206356 C32.7009112,61.7883164 32.3445451,61.8671535 31.8763487,61.8671535 L31.8763487,61.8671535 C31.4088978,61.8671535 31.0525317,61.7883164 30.8892594,61.7206356 L11.6216344,53.7603245 C11.3875362,53.6628938 11.0863397,53.4323327 10.8216746,53.1668154 L10.8216746,53.1668154 C10.5547728,52.9012982 10.3236567,52.6015686 10.2259915,52.366545 L2.24577723,33.1466667 C2.14811205,32.9123867 2.1011433,32.5375389 2.1011433,32.1619473 C2.1011433,31.7878431 2.14736652,31.4122515 2.24652277,31.1772279 L10.2259915,11.9573496 C10.3244022,11.7223259 10.5547728,11.4233401 10.8216746,11.1570791 L10.8216746,11.1578229 C11.0863397,10.8923056 11.3867906,10.6617444 11.6216344,10.56357 L30.8892594,2.60251521 C31.0525317,2.53557809 31.4088978,2.45674104 31.8770942,2.45674104 C32.3445451,2.45674104 32.7009112,2.53557809 32.8641835,2.60325896 L52.1295719,10.56357 C52.3644156,10.6617444 52.6656121,10.8923056 52.9317683,11.1570791 L52.9310228,11.1578229 C53.197179,11.4233401 53.4297862,11.7223259 53.5252147,11.9573496 L61.5069201,31.1772279 C61.6038397,31.4115078 61.6522996,31.7870994 61.6522996,32.1619473 Z M63.7532192,32.1619473 C63.7532192,31.5141447 63.6503353,30.8663421 63.4460585,30.3747262 L55.4665897,11.1555916 C55.2623129,10.6639757 54.8746344,10.1336849 54.4168754,9.67553753 L54.4168754,9.67553753 C53.9576254,9.21813387 53.4260585,8.83212982 52.9340049,8.62908722 L33.667871,0.667288709 C33.1750719,0.464246112 32.5249647,0.361609195 31.8770942,0.361609195 C31.2269871,0.361609195 30.5776254,0.464246112 30.0848263,0.667288709 L10.8194379,8.62834348 C10.3266388,8.83212982 9.79507188,9.21739013 9.33582188,9.67553753 L9.33582188,9.67553753 C8.87657188,10.1344287 8.48963884,10.6639757 8.28685313,11.1548479 L0.306638839,30.3747262 C0.101616518,30.8663421 0.000223660714,31.5141447 0.000223660714,32.1619473 C0.000223660714,32.8097498 0.101616518,33.4575524 0.306638839,33.9484246 L8.28685313,53.1690467 C8.48963884,53.6599189 8.87657188,54.1902096 9.33582188,54.648357 L9.61539777,54.3701961 L9.33582188,54.648357 C9.79507188,55.1065044 10.3266388,55.4925085 10.8194379,55.695551 L30.0848263,63.6573496 C30.5776254,63.8603922 31.2262415,63.9622853 31.8763487,63.9622853 L31.8763487,63.9622853 C32.5257103,63.9622853 33.1750719,63.8603922 33.6686165,63.6573496 L52.9340049,55.6962948 C53.4260585,55.4925085 53.9576254,55.1065044 54.4168754,54.648357 C54.8753799,54.1902096 55.2623129,53.6599189 55.4665897,53.1690467 L63.446804,33.9484246 C63.6510808,33.4575524 63.7532192,32.8097498 63.7532192,32.1619473 Z" id="Fill-15" fill="#FFFFFF" mask="url(#mask-2)"></path>
                            <path d="M35.3142375,18.3490264 L28.4374161,18.3490264 C23.7778179,18.3490264 19.9651482,22.153286 19.9651482,26.8016971 L19.9651482,35.005213 C19.9651482,39.6536241 23.7778179,43.45714 28.4374161,43.45714 L32.8353312,43.45714 L28.3494429,38.9820216 C27.3250768,38.9589655 26.3618446,38.5446991 25.6260009,37.810622 C24.8670455,37.0542326 24.4502911,36.058357 24.4502911,35.005213 L24.4502911,26.8016971 C24.4502911,25.7478093 24.8670455,24.7526775 25.6260009,23.996288 C26.3827196,23.2406423 27.382483,22.8234009 28.4374161,22.8234009 L35.3142375,22.8234009 C36.3714071,22.8234009 37.3689339,23.2406423 38.1278893,23.996288 C38.8838625,24.7526775 39.3013625,25.7478093 39.3013625,26.8016971 L39.3013625,35.005213 C39.3013625,36.058357 38.8838625,37.0542326 38.1278893,37.810622 C37.4293223,38.5067681 36.5279696,38.9143408 35.5647375,38.9738404 L35.5647375,46.1547059 L38.7250634,49.3089317 L38.7250634,42.7371941 C41.6997509,41.4222515 43.7879964,38.4450372 43.7879964,35.005213 L43.7879964,26.8016971 C43.7879964,22.153286 39.9745812,18.3490264 35.3142375,18.3490264" id="Fill-16" fill="#FFFFFF" mask="url(#mask-2)"></path>
                        </g>
                    </g>
                </g>
            </g>
        </g>
    </g>
</svg>